<?xml version="1.0" standalone="no"?>
<svg id="Vector43" width="82" height="94" viewBox="0 0 82 94" fill="none" xmlns="http://www.w3.org/2000/svg" style="max-width: 100%; max-height: 100%;">
<path d="M30.8474 89.3762C20.2828 72.0847 -9.76035 32.9068 9.06646 8.33073C19.9187 -5.83546 30.9943 11.4424 36.5471 22.9455C39.0716 28.1751 41.1075 33.523 43.2137 39.0217C43.9366 40.9091 44.7808 46.4893 45.5038 44.6019C46.6059 41.7246 46.0719 36.0338 46.8778 32.6444C47.9925 27.9558 49.7049 23.8048 52.1195 20.0225C56.4634 13.2179 66.8564 1.11288 74.3584 8.72931C84.0269 18.5454 76.3452 46.5668 71.5086 57.8216C67.4133 67.3512 62.0142 77.3899 56.0888 85.1246C55.3841 86.0446 50.615 93.5139 52.4248 88.114C53.9113 83.6788 55.5799 78.2883 55.5799 73.3664C55.5799 68.5536 52.3406 82.0163 50.5927 86.2539C47.1407 94.6229 57.2177 89.3762 61.0761 89.3762" stroke="#1C1C1C" stroke-width="5" stroke-linecap="round" stroke-dasharray="0,0,0,344.4478454589844"><animate attributeType="XML" attributeName="stroke-dasharray" repeatCount="1" dur="1.2820512820512822s" values="0,0,0,344.4478454589844; 
          0,172.2239227294922,172.2239227294922,0; 
          344.4478454589844,0,0,0" keyTimes="0; 0.5; 1" fill="freeze"></animate></path>
<setting>{"type":"direct","speed":39,"random":1,"shift":1,"size":1,"rupture":50}</setting></svg>